<svg data-name="Layer 2" viewBox="0 0 272 272" xmlns="http://www.w3.org/2000/svg"><path d="m112.49 240-3 4c-.2.27-.4.53-.61.78l-32.37-32.31-.09.08-17-17 .09-.08L28 164a10.81 10.81 0 0 1-.79-.88c.24-.2.48-.38.73-.57l4-3 31.78 31.77Z" fill="#e2e3e5" class="fill-e2e3e5"></path><path d="m76.5 201.15 5.66 5.66-1.45 1.45-4.2 4.21-.09.08-16.97-16.97.09-.08 4.2-4.21 1.45-1.45 5.66 5.66 5.65 5.65z" fill="#dfa62b" class="fill-564c4d"></path><path d="m70.85 195.5 5.65 5.65-1.45 1.45-3.4 3.4-5.65-5.65 3.4-3.4 1.45-1.45zM86.83 190.83l-5.66 5.66-.47.46-5.65-5.65.47-.46 5.66-5.66 5.65 5.65z" fill="#dfa62b" class="fill-a0887e"></path><path d="m121.29 237.54-51.9-51.9-32.93-32.93a3.31 3.31 0 0 1 1.87.94l31.53 31.53 5.66 5.66 5.65 5.65 5.66 5.66 33.52 33.52a3.31 3.31 0 0 1 .94 1.87Z" fill="#dfa62b" class="fill-a0887e"></path><path d="m126 230-33.51-33.51-5.66-5.66-5.65-5.65-5.66-5.66L44 148a11.3 11.3 0 0 0-19.24 6.92v1.07a11.24 11.24 0 0 0 2.52 7.11 10.81 10.81 0 0 0 .72.9l31.54 31.5 17 17L110 246a11.3 11.3 0 1 0 16-16Zm-10.33 10.32-33.51-33.51-5.66-5.66-5.65-5.65-5.66-5.66-31.52-31.52a3.3 3.3 0 0 1 2.33-5.64h.46l32.93 32.93 51.9 51.9a4.21 4.21 0 0 1 0 .46 3.29 3.29 0 0 1-1 2.33 3.3 3.3 0 0 1-4.67 0Z" fill="#dfa62b" class="fill-564c4d"></path><path d="M260.43 11.57a11.87 11.87 0 0 0-16.76-.21L75.52 179.52l5.66 5.66 168-168a4 4 0 0 1 5.65 0 4 4 0 0 1 0 5.65l-168 168 5.66 5.66L260.64 28.33a11.87 11.87 0 0 0-.21-16.76ZM76.51 212.47 59.54 195.5l-.09.08 16.97 16.97.09-.08z" fill="#dfa62b" class="fill-564c4d"></path><path d="M108.87 244.83c-6.1 7.71-14.1 11.17-19.45 11.17a7 7 0 0 1-5.14-1.74l-66.54-66.54c-1.65-1.65-1.84-4.23-1.7-6.1.44-6.29 4.8-13.48 11.18-18.53A11.24 11.24 0 0 1 24.7 156v-1.07l-1.6 1.2c-14.18 10.64-19.54 28.73-11.02 37.25l66.54 66.54c8.48 8.48 26.43 3.21 37.11-10.86A11.16 11.16 0 0 1 110 246Z" fill="#dfa62b" class="fill-564c4d"></path></svg>