<svg viewBox="0 0 512 512" xml:space="preserve" xmlns="http://www.w3.org/2000/svg"><g fill="none" stroke="#dfa62b" stroke-linecap="round" stroke-linejoin="round" stroke-miterlimit="10" stroke-width="15" class="stroke-474747"><path d="M132.656 262.024V61.69c0-13.735 11.134-24.869 24.869-24.869h0c13.735 0 24.869 11.134 24.869 24.869v170.844M232.132 232.534V61.69c0-13.735 11.134-24.869 24.869-24.869h0c13.735 0 24.869 11.134 24.869 24.869v145.844M310.152 463.646v29.512"></path><path d="M281.869 202.534V88.997c0-13.735 11.134-24.869 24.869-24.869h0c13.735 0 24.869 11.134 24.869 24.869v130.649M182.394 232.534V45.111c0-13.735 11.134-24.869 24.869-24.869h0c13.735 0 24.869 11.134 24.869 24.869v187.423M246.76 343.945s-6.827-72.168-114.104-72.168l-34.134-30.233-12.349-49.002c-4.966-20.078-25.657-31.975-45.508-26.165l-4.559 1.049 15.223 76.693a48.144 48.144 0 0 0 4.781 13.631l33.07 63.157a48.257 48.257 0 0 0 11.789 14.493l41.299 33.489a27.393 27.393 0 0 1 9.892 21.073v103.196M423.391 449.618l-43.784 35.027-43.784-35.027a143.124 143.124 0 0 1-53.716-111.763v-100.21l5.87 2.253a119.888 119.888 0 0 0 87.084-.453l4.546-1.8 7.088 2.644a119.88 119.88 0 0 0 87.192-1.33l3.219-1.314v100.21a143.12 143.12 0 0 1-53.715 111.763z"></path><path d="m336.107 359.646 20.5 20.5 74-74"></path></g></svg>