<svg viewBox="0 0 64 64" xml:space="preserve" xmlns="http://www.w3.org/2000/svg" enable-background="new 0 0 64 64"><path d="M63.692 44.814c-.627-1.757-1.911-3.124-3.617-3.874s-3.586-.76-5.301-.03l-11.508 4.86c.01-.134.02-.288.02-.432a4.06 4.06 0 0 0-4.058-4.059h-8.302c-.339 0-.667-.072-.976-.215l-7.038-3.175a8.55 8.55 0 0 0-3.534-.77h-5.96v-.576c0-1.13-.914-2.055-2.054-2.055H0V60.42h11.364c1.14 0 2.055-.925 2.055-2.055v-1.613h3.298l12.278 3.945c1.017.319 2.065.483 3.123.483 1.665 0 3.33-.4 4.809-1.192L64 45.646l-.308-.832zM7.223 56.609a1.443 1.443 0 0 1 0-2.887 1.443 1.443 0 0 1 0 2.887zm28.748 1.562a8.231 8.231 0 0 1-6.35.565L17.19 54.739l-3.77-.041V39.173h5.959c.924 0 1.85.206 2.681.586l7.038 3.185c.576.257 1.192.39 1.83.39h8.301c1.11 0 2.004.904 2.004 2.004a2 2 0 0 1-2.004 2.003H28.481v2.055h10.747c.75 0 1.449-.195 2.045-.555L55.575 42.8a4.625 4.625 0 0 1 3.678.02 4.668 4.668 0 0 1 2.137 1.891l-25.419 13.46zM9.307 30.345l6.399-3.545 6.266 3.775-1.394-7.181 4.597-3.988-1.697 7.314a1.026 1.026 0 0 0 1.498 1.13l7.113-3.94 6.963 4.196a1.026 1.026 0 0 0 1.538-1.076l-1.549-7.981.146-.127 4.607 4.297-1.654 7.126 6.398-3.545 6.266 3.775-1.394-7.181 5.526-4.793-7.26-.893-2.85-6.737-3.093 6.629-5.576.481 5.027-4.359a1.026 1.026 0 0 0-.548-1.796l-8.07-.992-3.168-7.488a1.028 1.028 0 0 0-.927-.627h-.019c-.398 0-.763.23-.931.593l-3.438 7.368-8.1.699c-.881.075-1.265 1.164-.613 1.775l5.58 5.205-6.106-.751-2.85-6.737L12.9 17.6l-7.288.63 5.35 4.99-1.655 7.125zm19.545-17.57c.366-.03.687-.255.843-.588l2.71-5.812 2.5 5.906c.144.339.457.575.821.62l6.365.782-4.845 4.202c-.278.241-.405.612-.335.972l1.222 6.296-5.493-3.309a1.025 1.025 0 0 0-1.028-.018l-5.61 3.108 1.45-6.248a1.029 1.029 0 0 0-.3-.984l-4.69-4.375 6.39-.551z" fill="#dfa62b" class="fill-000000"></path></svg>