<svg viewBox="0 0 30 30" xml:space="preserve" xmlns="http://www.w3.org/2000/svg"><path d="m8.8 23-.7.7c-.3.3-.3.8 0 1.1.1.2.3.2.5.2s.4 0 .6-.2l.7-.7c.3-.3.3-.8 0-1.1s-.8-.2-1.1 0zM7 17.2H6c-.4 0-.8.3-.8.8s.3.8.8.8h1c.4 0 .8-.3.8-.8s-.4-.8-.8-.8zm8-6.6c.4 0 .8-.3.8-.8v-1c0-.4-.3-.8-.8-.8s-.8.3-.8.8v1c0 .5.4.8.8.8zm-5.8.4c-.3-.3-.8-.3-1.1 0-.3.3-.3.8 0 1.1l.7.7c.1.1.3.2.5.2s.4-.1.5-.2c.3-.3.3-.8 0-1.1l-.6-.7zm9.3 2.3-3.3 3.2c-.5-.1-1 0-1.4.3-.6.6-.6 1.5 0 2.1.6.6 1.5.6 2.1 0 .4-.4.5-.9.4-1.4l3.3-3.2c.3-.3.3-.8 0-1.1-.3-.2-.8-.2-1.1.1zm-2.7-7.4v-.6c1.1-.3 2-1.4 2-2.6C17.7 1.3 16.5 0 15 0c-1.5 0-2.7 1.2-2.7 2.7 0 1.2.8 2.3 2 2.6v.6C8 6.3 3 11.5 3 17.8c0 6.6 5.4 12 12 12s12-5.4 12-12c0-6.3-5-11.5-11.2-11.9zm-2-3.1c0-.7.5-1.2 1.2-1.2s1.2.5 1.2 1.2c0 .6-.5 1.2-1.2 1.2s-1.2-.6-1.2-1.2zM15 28.3c-5.8 0-10.5-4.7-10.5-10.5S9.2 7.4 15 7.4s10.5 4.7 10.5 10.5S20.8 28.3 15 28.3zm0-3.1c-.4 0-.8.3-.8.8v1c0 .4.3.8.8.8s.8-.3.8-.8v-1c0-.5-.4-.8-.8-.8zm9-8h-1c-.4 0-.8.3-.8.8s.3.8.8.8h1c.4 0 .8-.3.8-.8s-.4-.8-.8-.8zM20.8 11l-.7.7c-.3.3-.3.8 0 1.1.1.1.3.2.5.2s.4-.1.5-.2l.7-.7c.3-.3.3-.8 0-1.1-.2-.3-.7-.3-1 0zm.4 12c-.3-.3-.8-.3-1.1 0-.3.3-.3.8 0 1.1l.7.7c.2.2.4.2.6.2.2 0 .4-.1.5-.2.3-.3.3-.8 0-1.1l-.7-.7z" fill="#dfa62b" class="fill-262324"></path></svg>