<svg viewBox="0 0 256 256" xml:space="preserve" xmlns="http://www.w3.org/2000/svg" enable-background="new 0 0 256 256"><path d="M144.1 95.7c2.6 0 4.9-2.1 5-4.7l2.1-37.1c.2-2.8-2-5.1-4.7-5.3-2.8-.2-5.1 2-5.3 4.7l-2.1 37.1c-.2 2.8 2 5.1 4.7 5.3h.3zM173.9 82.2c2.6 0 4.9-2.1 5-4.7l2.2-38.9c.2-2.8-2-5.1-4.7-5.3-2.7-.2-5.1 2-5.3 4.7l-2.2 38.9c-.2 2.8 2 5.1 4.7 5.3h.3zM246.7 164.4c-4.7-5.8-12.4-7.7-19.2-4.8l-61.9 26c-2.6 1.1-3.8 4-2.7 6.6 1.1 2.6 4 3.8 6.6 2.7l61.9-26c2.6-1.1 5.7-.3 7.5 1.9 1.1 1.4 1.6 3.2 1.3 5-.3 1.8-1.3 3.4-2.9 4.4-27 17.6-88.5 52.4-91.4 54.1-.1.1-.2.1-.3.2-7.5 4.4-15.8 5.6-26.4 3.8-.6-.1-11.2-1.4-49.3-6.1L53 229.9v-67.7c2.8-.2 5.2-.3 6.3-.3h.6c23.4-1.5 45.7 3 69.3 7.8 3 .6 6.1 1.2 9.1 1.8 3.2.6 5.6 3.5 5.6 6.8 0 .2 0 .4-.1.8-.2 1.9-1.2 3.3-2 4-1.3 1.3-3 2-4.9 2H89.8c-2.8 0-5 2.2-5 5s2.2 5 5 5h47.3c4.5 0 8.8-1.8 12-5 2.7-2.8 4.4-6.2 4.8-9.7.1-.7.2-1.5.2-2.2 0-8.1-5.8-15.1-13.7-16.6l-9-1.8c-23.2-4.7-47.3-9.6-71.9-8H59c-1.1.1-3.5.2-6.1.3-.6-2.1-2.4-3.7-4.8-3.7H10.7c-2.8 0-5 2.2-5 5v84.4c0 2.8 2.2 5 5 5H48c2 0 3.7-1.2 4.5-2.9l16.2 2c20.1 2.5 47.6 5.8 48.8 6 3.7.7 7.3 1 10.7 1 8.3 0 15.7-2 22.4-5.9.1 0 .1-.1.2-.1.6-.4 64.2-36.3 92-54.4 3.9-2.5 6.6-6.6 7.3-11.2.7-4.6-.5-9.3-3.4-12.9zM43 232.9H15.7v-74.3H43v74.3z" fill="#dfa62b" class="fill-000000"></path><path d="M122.8 100.6c2.3-1.6 2.8-4.8 1.2-7-9-12.6-8.3-29.1 1.7-41 20-23.7 51.6-32.2 76.3-35.1 1 14.2-1 30.1-5.6 45.5-1.7 5.6-17.5 54.5-51.3 44.4-1.4-.5-10.3-4.5-12.2-5.6-1.1-.8-2.5-1.2-3.9-1-6.4 1.1-12.9 24-13.4 34.8-.1 2.8 2 5.1 4.8 5.2h.2c2.7 0 4.9-2.1 5-4.8.4-9.4 3.9-18.7 6.1-23.7.7.3 1.5.7 2.4 1.1 1.6.7 6.7 3.1 8 3.4 32.9 9.8 55-21.4 63.9-51.1 5.5-18.4 7.5-37.6 5.5-54.6-.5-2.6-3.1-4.6-5.8-4.4-38.8 3.6-69.1 17.2-87.7 39.1-13.1 15.5-14 36.9-2.2 53.3 1.6 2.6 4.7 3.2 7 1.5z" fill="#dfa62b" class="fill-000000"></path></svg>